<svg width="1200" height="1200" viewBox="0 0 1200 1200" fill="none" xmlns="http://www.w3.org/2000/svg">
  <rect width="1200" height="1200" rx="56" fill="#11151C"/>
  <rect x="126" y="126" width="948" height="948" rx="40" fill="url(#paint0_linear)" stroke="rgba(255,255,255,0.08)"/>
  <path d="M240 671C322 621 385 607 452 620L628 654C698 668 746 655 816 614L964 528C992 512 1025 531 1025 563V630C1025 735 959 798 860 821L430 924C293 957 176 853 176 715V703C176 688 184 674 198 669L240 671Z" fill="rgba(255,255,255,0.08)" stroke="rgba(255,255,255,0.18)" stroke-width="10"/>
  <path d="M363 642L429 519L617 584L512 734" stroke="rgba(255,255,255,0.2)" stroke-width="14" stroke-linecap="round"/>
  <path d="M298 804H876" stroke="rgba(255,255,255,0.18)" stroke-width="14" stroke-linecap="round"/>
  <circle cx="936" cy="248" r="138" fill="url(#paint1_radial)" fill-opacity="0.48"/>
  <defs>
    <linearGradient id="paint0_linear" x1="600" y1="126" x2="600" y2="1074" gradientUnits="userSpaceOnUse">
      <stop stop-color="#1B212A"/>
      <stop offset="1" stop-color="#11151C"/>
    </linearGradient>
    <radialGradient id="paint1_radial" cx="0" cy="0" r="1" gradientUnits="userSpaceOnUse" gradientTransform="translate(936 248) rotate(90) scale(138)">
      <stop stop-color="#AFCBFF"/>
      <stop offset="1" stop-color="#AFCBFF" stop-opacity="0"/>
    </radialGradient>
  </defs>
</svg>
